<svg width="22" height="22" viewBox="0 0 22 22" fill="none" xmlns="http://www.w3.org/2000/svg">
<path d="M21.4673 20.568L16.3119 15.4129C19.4975 11.7628 19.3549 6.20007 15.8794 2.72448C14.1227 0.967537 11.7866 0 9.30206 0C6.8175 0 4.48143 0.967537 2.72448 2.72448C0.967537 4.48115 0 6.81722 0 9.30178C0 11.7866 0.967537 14.1221 2.72448 15.8791C4.48143 17.6357 6.81722 18.6033 9.30178 18.6033C11.4354 18.6033 13.4588 17.8877 15.1008 16.5734L20.2811 21.7542C20.445 21.9181 20.6597 22 20.8742 22C21.0887 22 21.3034 21.9181 21.4673 21.7542C21.795 21.4267 21.795 20.8954 21.4673 20.568ZM3.91069 14.6929C2.47085 13.253 1.67781 11.3384 1.67781 9.30178C1.67781 7.2652 2.47085 5.35081 3.91069 3.91097C5.35081 2.47085 7.26548 1.67781 9.30206 1.67781C11.3389 1.67781 13.253 2.47085 14.6931 3.9107C17.6657 6.88349 17.6657 11.7203 14.6931 14.6931C13.2533 16.1327 11.3384 16.9257 9.30178 16.9257C7.26548 16.926 5.35081 16.133 3.91069 14.6929Z" fill="#374249"/>
</svg>
