<svg width="22" height="22" viewBox="0 0 22 22" fill="none" xmlns="http://www.w3.org/2000/svg">
<path d="M13.763 12.1277C13.464 12.0427 13.1566 11.9713 12.8466 11.9109C13.0771 11.8286 13.3048 11.7326 13.5216 11.6256C15.5465 10.6268 16.9431 8.53604 16.9431 6.12971C16.9431 2.74931 14.1938 0 10.8134 0C7.43303 0 4.68371 2.74931 4.68371 6.12971C4.68371 8.53604 6.08306 10.6268 8.10801 11.6256C8.32477 11.7353 8.55251 11.8286 8.78299 11.9109C8.47019 11.9686 8.16563 12.0427 7.86381 12.1277C3.49015 13.3679 0.235969 17.2943 0 22H1.10027C1.38563 16.8883 5.63308 12.8164 10.8134 12.8164C15.9965 12.8164 20.2439 16.8883 20.5293 22H21.6296C21.3936 17.2943 18.1367 13.3679 13.763 12.1277ZM5.69069 6.12971C5.69069 3.30631 7.99002 1.00698 10.8134 1.00698C13.6396 1.00698 15.9361 3.30631 15.9361 6.12971C15.9361 8.95311 13.6396 11.2497 10.8134 11.2497C7.99002 11.2497 5.69069 8.95311 5.69069 6.12971Z" fill="#374249"/>
</svg>
